<?xml version="1.0" encoding="UTF-8" standalone="no"?>
<!DOCTYPE svg PUBLIC "-//W3C//DTD SVG 1.0//EN" "http://www.w3.org/TR/2001/PR-SVG-20010719/DTD/svg10.dtd">
<svg width="43cm" height="25cm" viewBox="18 18 843 483" xmlns="http://www.w3.org/2000/svg" xmlns:xlink="http://www.w3.org/1999/xlink">
  <g>
    <ellipse style="fill: #ffffff" cx="80" cy="60" rx="60" ry="40"/>
    <ellipse style="fill: none; fill-opacity:0; stroke-width: 2; stroke: #ff0000" cx="80" cy="60" rx="60" ry="40"/>
    <line style="fill: none; fill-opacity:0; stroke-width: 2; stroke: #ff0000" x1="80" y1="100" x2="140" y2="100"/>
    <text font-size="12.7998" style="fill: #000000;text-anchor:middle;font-family:sans-serif;font-style:normal;font-weight:normal" x="80" y="65">
      <tspan x="80" y="65">Psychologen</tspan>
    </text>
  </g>
  <text font-size="12.7998" style="fill: #000000;text-anchor:middle;font-family:sans-serif;font-style:normal;font-weight:normal" x="340.002" y="50.25">
    <tspan x="340.002" y="50.25"></tspan>
  </text>
  <g>
    <rect style="fill: #ffffff" x="240" y="20" width="160" height="59"/>
    <rect style="fill: none; fill-opacity:0; stroke-width: 2; stroke: #000000" x="240" y="20" width="160" height="59"/>
    <text font-size="12.7998" style="fill: #000000;text-anchor:middle;font-family:sans-serif;font-style:normal;font-weight:normal" x="320" y="54.3">
      <tspan x="320" y="54.3">Test ontwerpen</tspan>
    </text>
  </g>
  <g>
    <line style="fill: none; fill-opacity:0; stroke-width: 2; stroke: #ff0000" x1="140" y1="100" x2="229.078" y2="55.0158"/>
    <polygon style="fill: #ffffff" points="231.332,59.479 238.004,50.508 226.824,50.5526 "/>
    <polygon style="fill: none; fill-opacity:0; stroke-width: 2; stroke: #ff0000" points="231.332,59.479 238.004,50.508 226.824,50.5526 "/>
  </g>
  <g>
    <ellipse style="fill: #ffffff" cx="80" cy="160" rx="60" ry="40"/>
    <ellipse style="fill: none; fill-opacity:0; stroke-width: 2; stroke: #00ff00" cx="80" cy="160" rx="60" ry="40"/>
    <line style="fill: none; fill-opacity:0; stroke-width: 2; stroke: #00ff00" x1="80" y1="200" x2="140" y2="200"/>
    <text font-size="12.7998" style="fill: #000000;text-anchor:middle;font-family:sans-serif;font-style:normal;font-weight:normal" x="80" y="165">
      <tspan x="80" y="165">Dokters</tspan>
    </text>
  </g>
  <g>
    <ellipse style="fill: #ffffff" cx="80" cy="260" rx="60" ry="40"/>
    <ellipse style="fill: none; fill-opacity:0; stroke-width: 2; stroke: #0000ff" cx="80" cy="260" rx="60" ry="40"/>
    <line style="fill: none; fill-opacity:0; stroke-width: 2; stroke: #0000ff" x1="80" y1="300" x2="140" y2="300"/>
    <text font-size="12.7998" style="fill: #000000;text-anchor:middle;font-family:sans-serif;font-style:normal;font-weight:normal" x="80" y="257">
      <tspan x="80" y="257">Administratief</tspan>
      <tspan x="80" y="273">personeel</tspan>
    </text>
  </g>
  <g>
    <rect style="fill: #ffffff" x="240" y="100" width="160" height="59"/>
    <rect style="fill: none; fill-opacity:0; stroke-width: 2; stroke: #000000" x="240" y="100" width="160" height="59"/>
    <text font-size="12.7998" style="fill: #000000;text-anchor:middle;font-family:sans-serif;font-style:normal;font-weight:normal" x="320" y="134.3">
      <tspan x="320" y="134.3">Aanmelden</tspan>
    </text>
  </g>
  <g>
    <rect style="fill: #ffffff" x="240" y="180" width="160" height="59"/>
    <rect style="fill: none; fill-opacity:0; stroke-width: 2; stroke: #000000" x="240" y="180" width="160" height="59"/>
    <text font-size="12.7998" style="fill: #000000;text-anchor:middle;font-family:sans-serif;font-style:normal;font-weight:normal" x="320" y="214.3">
      <tspan x="320" y="214.3">Test opstarten</tspan>
    </text>
  </g>
  <g>
    <ellipse style="fill: #ffffff" cx="80" cy="360" rx="60" ry="40"/>
    <ellipse style="fill: none; fill-opacity:0; stroke-width: 2; stroke: #000000" cx="80" cy="360" rx="60" ry="40"/>
    <line style="fill: none; fill-opacity:0; stroke-width: 2; stroke: #000000" x1="80" y1="400" x2="140" y2="400"/>
    <text font-size="12.7998" style="fill: #000000;text-anchor:middle;font-family:sans-serif;font-style:normal;font-weight:normal" x="80" y="365">
      <tspan x="80" y="365">Statistici</tspan>
    </text>
  </g>
  <g>
    <rect style="fill: #ffffff" x="240" y="340" width="160" height="60"/>
    <rect style="fill: none; fill-opacity:0; stroke-width: 2; stroke: #000000" x="240" y="340" width="160" height="60"/>
    <text font-size="12.7998" style="fill: #000000;text-anchor:middle;font-family:sans-serif;font-style:normal;font-weight:normal" x="320" y="374.8">
      <tspan x="320" y="374.8">Test resultaten bekijken</tspan>
    </text>
  </g>
  <g>
    <rect style="fill: #ffffff" x="240" y="260" width="160" height="60"/>
    <rect style="fill: none; fill-opacity:0; stroke-width: 2; stroke: #000000" x="240" y="260" width="160" height="60"/>
    <text font-size="12.7998" style="fill: #000000;text-anchor:middle;font-family:sans-serif;font-style:normal;font-weight:normal" x="320" y="286.8">
      <tspan x="320" y="286.8">Patiënteninformatie</tspan>
      <tspan x="320" y="302.8">beheren</tspan>
    </text>
  </g>
  <g>
    <line style="fill: none; fill-opacity:0; stroke-width: 2; stroke: #00ff00" x1="140" y1="200" x2="229.999" y2="136.55"/>
    <polygon style="fill: #ffffff" points="232.88,140.637 238.172,130.788 227.118,132.464 "/>
    <polygon style="fill: none; fill-opacity:0; stroke-width: 2; stroke: #00ff00" points="232.88,140.637 238.172,130.788 227.118,132.464 "/>
  </g>
  <g>
    <line style="fill: none; fill-opacity:0; stroke-width: 2; stroke: #00ff00" x1="140" y1="200" x2="227.819" y2="208.343"/>
    <polygon style="fill: #ffffff" points="227.346,213.32 237.774,209.289 228.292,203.365 "/>
    <polygon style="fill: none; fill-opacity:0; stroke-width: 2; stroke: #00ff00" points="227.346,213.32 237.774,209.289 228.292,203.365 "/>
  </g>
  <g>
    <line style="fill: none; fill-opacity:0; stroke-width: 2; stroke: #ff0000" x1="140" y1="100" x2="228.264" y2="126.038"/>
    <polygon style="fill: #ffffff" points="226.849,130.834 237.855,128.867 229.679,121.242 "/>
    <polygon style="fill: none; fill-opacity:0; stroke-width: 2; stroke: #ff0000" points="226.849,130.834 237.855,128.867 229.679,121.242 "/>
  </g>
  <g>
    <line style="fill: none; fill-opacity:0; stroke-width: 2; stroke: #0000ff" x1="140" y1="300" x2="227.825" y2="291.218"/>
    <polygon style="fill: #ffffff" points="228.322,296.193 237.775,290.222 227.327,286.242 "/>
    <polygon style="fill: none; fill-opacity:0; stroke-width: 2; stroke: #0000ff" points="228.322,296.193 237.775,290.222 227.327,286.242 "/>
  </g>
  <g>
    <line style="fill: none; fill-opacity:0; stroke-width: 2; stroke: #000000" x1="140" y1="400" x2="228.28" y2="373.516"/>
    <polygon style="fill: #ffffff" points="229.717,378.305 237.858,370.643 226.843,368.727 "/>
    <polygon style="fill: none; fill-opacity:0; stroke-width: 2; stroke: #000000" points="229.717,378.305 237.858,370.643 226.843,368.727 "/>
  </g>
  <g>
    <line style="fill: none; fill-opacity:0; stroke-width: 2; stroke: #0000ff" x1="140" y1="300" x2="233.81" y2="140.055"/>
    <polygon style="fill: #ffffff" points="238.123,142.584 238.869,131.429 229.497,137.525 "/>
    <polygon style="fill: none; fill-opacity:0; stroke-width: 2; stroke: #0000ff" points="238.123,142.584 238.869,131.429 229.497,137.525 "/>
  </g>
  <g>
    <line style="fill: none; fill-opacity:0; stroke-width: 2; stroke: #000000" x1="140" y1="400" x2="235.757" y2="140.977"/>
    <polygon style="fill: #ffffff" points="240.447,142.711 239.225,131.597 231.067,139.243 "/>
    <polygon style="fill: none; fill-opacity:0; stroke-width: 2; stroke: #000000" points="240.447,142.711 239.225,131.597 231.067,139.243 "/>
  </g>
  <g>
    <line style="fill: none; fill-opacity:0; stroke-width: 2; stroke: #00ff00" x1="140" y1="200" x2="233.796" y2="359.453"/>
    <polygon style="fill: #ffffff" points="229.486,361.988 238.866,368.073 238.106,356.918 "/>
    <polygon style="fill: none; fill-opacity:0; stroke-width: 2; stroke: #00ff00" points="229.486,361.988 238.866,368.073 238.106,356.918 "/>
  </g>
  <g>
    <ellipse style="fill: #ffffff" cx="80" cy="460" rx="60" ry="40"/>
    <ellipse style="fill: none; fill-opacity:0; stroke-width: 2; stroke: #ffa500" cx="80" cy="460" rx="60" ry="40"/>
    <line style="fill: none; fill-opacity:0; stroke-width: 2; stroke: #ffa500" x1="80" y1="500" x2="140" y2="500"/>
    <text font-size="12.7998" style="fill: #000000;text-anchor:middle;font-family:sans-serif;font-style:normal;font-weight:normal" x="80" y="465">
      <tspan x="80" y="465">Patiënten</tspan>
    </text>
  </g>
  <g>
    <rect style="fill: #ffffff" x="240" y="420" width="160" height="59"/>
    <rect style="fill: none; fill-opacity:0; stroke-width: 2; stroke: #000000" x="240" y="420" width="160" height="59"/>
    <text font-size="12.7998" style="fill: #000000;text-anchor:middle;font-family:sans-serif;font-style:normal;font-weight:normal" x="320" y="454.3">
      <tspan x="320" y="454.3">Testen uitvoeren</tspan>
    </text>
  </g>
  <g>
    <line style="fill: none; fill-opacity:0; stroke-width: 2; stroke: #ffa500" x1="140" y1="500" x2="229.078" y2="455.016"/>
    <polygon style="fill: #ffffff" points="231.332,459.479 238.004,450.508 226.824,450.553 "/>
    <polygon style="fill: none; fill-opacity:0; stroke-width: 2; stroke: #ffa500" points="231.332,459.479 238.004,450.508 226.824,450.553 "/>
  </g>
  <text font-size="12.7998" style="fill: #000000;text-anchor:start;font-family:sans-serif;font-style:normal;font-weight:normal" x="420" y="33.1863">
    <tspan x="420" y="33.1863">1) De psycholoog meld aan op het systeem.</tspan>
    <tspan x="420" y="49.1863">2) De psycholoog geeft een onderwerp voor de test.</tspan>
    <tspan x="420" y="65.1863">3) De psycholoog ontwerpt de test op het systeem/upload test.</tspan>
    <tspan x="420" y="81.1863">4) De psycholoog krijgt bevesteging van het succesvol toevoegen van de test.</tspan>
  </text>
</svg>
